<svg xmlns="http://www.w3.org/2000/svg" viewBox="0 0 1600 1000" role="img" aria-label="Boutique Hospitality Lounge Dubai">
  <defs>
    <linearGradient id="sky" x1="0" y1="0" x2="0" y2="1">
      <stop offset="0%" stop-color="#f3ddbc"/>
      <stop offset="100%" stop-color="#cfad84"/>
    </linearGradient>
    <linearGradient id="sand" x1="0" y1="0" x2="1" y2="0">
      <stop offset="0%" stop-color="#b38b64"/>
      <stop offset="100%" stop-color="#8b6747"/>
    </linearGradient>
  </defs>
  <rect width="1600" height="1000" fill="url(#sky)"/>
  <path d="M0 730C230 700 500 760 760 730S1280 650 1600 710V1000H0Z" fill="url(#sand)"/>
  <g fill="#6a4a32" opacity="0.86">
    <rect x="190" y="330" width="140" height="380"/>
    <rect x="380" y="250" width="120" height="460"/>
    <rect x="550" y="280" width="180" height="430"/>
    <rect x="790" y="210" width="130" height="500"/>
    <rect x="970" y="300" width="150" height="410"/>
    <rect x="1170" y="360" width="110" height="350"/>
  </g>
  <g fill="#e9cda6" opacity="0.6">
    <circle cx="230" cy="760" r="56"/><circle cx="330" cy="760" r="56"/><rect x="210" y="760" width="140" height="40"/>
    <circle cx="1010" cy="750" r="64"/><circle cx="1120" cy="750" r="64"/><rect x="985" y="750" width="160" height="44"/>
  </g>
</svg>
