<svg xmlns="http://www.w3.org/2000/svg" viewBox="0 0 1600 1000" role="img" aria-label="Urban Residence Mumbai">
  <defs>
    <linearGradient id="bg" x1="0" y1="0" x2="1" y2="1">
      <stop offset="0%" stop-color="#f5efe6"/>
      <stop offset="100%" stop-color="#d7c7b3"/>
    </linearGradient>
    <linearGradient id="tower" x1="0" y1="0" x2="0" y2="1">
      <stop offset="0%" stop-color="#8f7f6e"/>
      <stop offset="100%" stop-color="#5c4d3f"/>
    </linearGradient>
  </defs>
  <rect width="1600" height="1000" fill="url(#bg)"/>
  <rect x="0" y="780" width="1600" height="220" fill="#c3b29f"/>
  <g fill="url(#tower)">
    <rect x="180" y="380" width="180" height="400"/>
    <rect x="390" y="320" width="170" height="460"/>
    <rect x="590" y="260" width="220" height="520"/>
    <rect x="850" y="300" width="190" height="480"/>
    <rect x="1080" y="350" width="160" height="430"/>
  </g>
  <g fill="#f2e4d2" opacity="0.55">
    <rect x="220" y="430" width="20" height="20"/><rect x="260" y="430" width="20" height="20"/><rect x="220" y="470" width="20" height="20"/>
    <rect x="430" y="370" width="20" height="20"/><rect x="470" y="370" width="20" height="20"/><rect x="430" y="410" width="20" height="20"/>
    <rect x="640" y="300" width="24" height="24"/><rect x="685" y="300" width="24" height="24"/><rect x="640" y="345" width="24" height="24"/>
    <rect x="900" y="340" width="22" height="22"/><rect x="940" y="340" width="22" height="22"/><rect x="900" y="382" width="22" height="22"/>
  </g>
</svg>
